<?xml version="1.0" encoding="iso-8859-1"?>
<!-- Generator: Adobe Illustrator 17.1.0, SVG Export Plug-In . SVG Version: 6.00 Build 0)  -->
<!DOCTYPE svg PUBLIC "-//W3C//DTD SVG 1.1//EN" "http://www.w3.org/Graphics/SVG/1.1/DTD/svg11.dtd">
<svg version="1.1" id="Layer_1" xmlns="http://www.w3.org/2000/svg" xmlns:xlink="http://www.w3.org/1999/xlink" x="0px" y="0px"
	 viewBox="-5.378 0 100 100" style="enable-background:new -5.378 0 100 100;" xml:space="preserve">
<g id="Your_Icon">
	<g>
		<polygon style="fill:#FFFFFF;" points="15.294,32.571 73.951,32.571 44.622,79.493 29.561,55.402 		"/>
	</g>
	<g>
		<polygon style="fill:#FFFFFF;" points="11.887,35.931 39.979,80.88 0.641,75.256 3.453,65.422 11.876,35.919 		"/>
		<path style="fill:#FFFFFF;" d="M11.876,35.919L3.453,65.422l8.434-29.492L11.876,35.919z"/>
	</g>
	<g>
		<polygon style="fill:#FFFFFF;" points="77.357,35.931 77.369,35.919 85.791,65.422 88.603,75.256 49.266,80.88 		"/>
		<path style="fill:#FFFFFF;" d="M77.369,35.919l-0.014,0.011l8.435,29.492L77.369,35.919z"/>
	</g>
	<g>
		<polygon style="fill:#FFFFFF;" points="79.807,81.23 46.955,100 46.955,85.92 		"/>
	</g>
	<g>
		<polygon style="fill:#FFFFFF;" points="42.289,85.92 42.289,100 9.438,81.23 		"/>
	</g>
	<g>
		<polygon style="fill:#FFFFFF;" points="44.622,0 72.527,27.905 16.717,27.905 		"/>
	</g>
	<g>
		<polygon style="fill:#FFFFFF;" points="87.145,20.579 78.383,27.158 56.439,5.214 		"/>
		<path style="fill:#FFFFFF;" d="M80.845,31.136l8.399-6.288v-0.011L80.845,31.136z"/>
	</g>
	<g>
		<polygon style="fill:#FFFFFF;" points="89.244,24.837 89.244,60.536 80.845,31.147 80.845,31.136 		"/>
	</g>
	<g>
		<polygon style="fill:#FFFFFF;" points="32.805,5.214 10.873,27.158 2.1,20.579 		"/>
		<path style="fill:#FFFFFF;" d="M0,24.837v0.011l8.399,6.288L0,24.837z"/>
	</g>
	<g>
		<polygon style="fill:#FFFFFF;" points="0,24.837 8.399,31.136 8.399,31.147 0,60.536 		"/>
	</g>
</g>
</svg>
