<?xml version="1.0" encoding="utf-8"?>
<!-- Generator: Adobe Illustrator 18.1.1, SVG Export Plug-In . SVG Version: 6.00 Build 0)  -->
<!DOCTYPE svg PUBLIC "-//W3C//DTD SVG 1.1//EN" "http://www.w3.org/Graphics/SVG/1.1/DTD/svg11.dtd">
<svg version="1.1" id="icons" xmlns="http://www.w3.org/2000/svg" xmlns:xlink="http://www.w3.org/1999/xlink" x="0px" y="0px"
	 viewBox="-2.6 120.7 271 271" enable-background="new -2.6 120.7 271 271" xml:space="preserve">
<g>
	<path fill="#FFFFFF" d="M268.4,391.7H82.5c-3.7,0-6.8-3-6.8-6.8s3-6.8,6.8-6.8h172.3V179H82.5c-3.7,0-6.8-3-6.8-6.8s3-6.8,6.8-6.8
		h185.9V391.7z"/>
	<path fill="#FFFFFF" d="M89.3,391.7H-2.6V165.5h91.9V391.7z M10.9,378.2h64.8V179H10.9V378.2z"/>
	<path fill="#FFFFFF" d="M60.1,369.3c-1.7,0-3.5-0.7-4.8-2l-12-12l-12,12c-2.7,2.7-6.9,2.7-9.6,0c-2.7-2.7-2.7-6.9,0-9.6l21.6-21.6
		l21.6,21.6c2.7,2.7,2.7,6.9,0,9.6C63.6,368.6,61.9,369.3,60.1,369.3z"/>
	<path fill="#FFFFFF" d="M43.3,352.5c-3.7,0-6.8-3-6.8-6.8V172.2c0-3.7,3-6.8,6.8-6.8c3.7,0,6.8,3,6.8,6.8v173.5
		C50.1,349.5,47.1,352.5,43.3,352.5z"/>
	<path fill="#FFFFFF" d="M205.7,179c-3.7,0-6.8-3-6.8-6.8v-22.4c0-8.6-7-15.6-15.6-15.6h-33.6c-8.6,0-15.6,7-15.6,15.6v22.4
		c0,3.7-3,6.8-6.8,6.8c-3.7,0-6.8-3-6.8-6.8v-22.4c0-16.1,13.1-29.2,29.2-29.2h33.6c16.1,0,29.2,13.1,29.2,29.2v22.4
		C212.4,176,209.4,179,205.7,179z"/>
	<path fill="#FFFFFF" d="M82.5,179c-3.7,0-6.8-3-6.8-6.8v-22.4c0-16.1,13.1-29.2,29.2-29.2h11.2c3.7,0,6.8,3,6.8,6.8s-3,6.8-6.8,6.8
		h-11.2c-8.6,0-15.6,7-15.6,15.6v22.4C89.3,176,86.3,179,82.5,179z"/>
</g>
</svg>
